PathFileType	4	(X/Y/Z)	OpenSim_Sub05_CSStiffKnee_Gyro.trc
DataRate	CameraRate	NumFrames	NumMarkers	Units	OrigDataRate	OrigDataStartFrame	OrigNumFrames
100	100	20	8	m	100	1	11248
Frame#	Time	torso_imu_offset_imu	pelvis_imu_offset_imu	tibia_r_imu_offset_imu	femur_r_imu_offset_imu	tibia_l_imu_offset_imu	femur_l_imu_offset_imu	toes_r_imu_offset_imu	toes_l_imu_offset_imu
				X1	Y1	Z1	X2	Y2	Z2	X3	Y3	Z3	X4	Y4	Z4	X5	Y5	Z5	X6	Y6	Z6	X7	Y7	Z7	X8		Y8	Z8	

1	0	0.00470678	0.03304375	0.00487468	-0.00237090	-0.00198154	-0.00691537	-0.00581593	0.00750709	0.00367635	-0.02417797	0.01512922	-0.02038410	0.01081510	-0.00116884	-0.00442124	0.00739946	-0.01097741	0.02240937	-0.00153127	0.00355812	0.00588982	0.00442854	0.00480138	-0.00731365
2	0.01000000	0.00577019	0.03902915	0.00738725	-0.00851064	0.00310100	-0.01283086	-0.00871720	0.00400568	0.00613354	-0.03383464	0.01265205	-0.01508351	0.00258866	0.00201537	-0.00367378	0.01527222	-0.01626478	0.02050659	-0.00355007	0.00593626	0.00417073	0.00504022	0.00535322	-0.01000676
3	0.02000000	0.00824185	0.04395640	0.00691409	-0.01175780	0.00968828	-0.01326182	-0.02169678	0.00699345	0.00643624	-0.01590371	0.02877695	-0.01634913	-0.00955123	0.00468961	0.00159711	0.01304002	-0.02095033	0.01578766	-0.00676321	0.00318110	0.00366990	0.00189459	0.00781001	-0.00739633
4	0.03000000	0.00390516	0.04564436	0.00847915	-0.01719730	0.01219449	-0.01436625	-0.02033682	0.01560375	0.00400113	-0.00185853	0.03194339	-0.01097060	-0.02173437	0.00435143	0.00076148	-0.00191181	-0.02383451	0.01030514	-0.00417871	0.00328298	0.00214430	-0.00173896	0.01106962	-0.00478169
5	0.04000000	0.00092614	0.05177115	0.01124794	-0.01674988	0.01035637	-0.01188257	-0.01221134	0.01022253	0.00877776	-0.00413081	0.01516873	-0.00918210	-0.01964693	0.00451928	0.00348222	-0.02333715	-0.02198099	0.00735076	-0.00384096	0.00234025	0.00402077	-0.00387451	0.01207600	-0.00275578
6	0.05000000	0.00004441	0.05263330	0.00791135	-0.02090904	0.00266828	-0.00927211	-0.01234584	0.00272524	0.00939196	0.00335463	0.01810158	-0.01060663	-0.00753404	-0.00017779	0.01084700	-0.04588508	-0.01088791	0.00790218	-0.00501396	-0.00000936	0.00158799	-0.00053614	0.02173838	-0.00015967
7	0.06000000	-0.00360714	0.04753478	0.00335404	-0.01823657	0.00225051	-0.00849273	-0.01219256	0.00938837	0.00141339	0.01302616	0.02088159	-0.01024287	0.00466659	-0.00006574	0.00826278	-0.06362940	-0.00358286	0.00484715	-0.00308194	0.00288042	0.00022838	-0.00093168	0.02197924	0.00189523
8	0.07000000	-0.00587536	0.04980633	0.00354299	-0.01689093	0.00206107	-0.00617673	0.00067432	0.01312464	0.00005884	0.00851934	0.01990995	-0.00705064	0.01666307	0.00281576	0.00702851	-0.07024220	0.00082509	0.00214585	-0.00280553	-0.00069195	0.00397772	-0.00413326	0.01959753	0.00119113
9	0.08000000	-0.00224555	0.04759238	0.00362663	-0.01753410	-0.00024241	-0.00331511	0.00811492	0.00932069	0.00177225	0.00191598	0.02865911	-0.00758071	0.01117890	-0.00113031	0.01290769	-0.05899494	0.00072851	-0.00416991	-0.00161020	-0.00515373	0.00276762	-0.00011417	0.02065052	-0.00023450
10	0.09000000	0.00681270	0.04515213	0.00062336	-0.01366619	0.00457782	-0.00303072	0.01340577	0.00625546	-0.00044597	-0.01394726	0.03036984	-0.00990066	-0.00886703	-0.00214641	0.01149036	-0.03637166	-0.00901024	-0.01229432	0.00002521	-0.00459637	0.00364918	-0.00270931	0.02009939	-0.00150287
11	0.10000000	0.00683912	0.04272021	0.00505180	-0.01467066	0.01142414	-0.00626714	0.00559288	0.01096710	-0.00356576	-0.02851456	0.03544989	-0.00254679	-0.01763877	-0.00216006	0.01104963	-0.01543728	-0.01981894	-0.01474445	0.00058726	-0.00656667	0.00588316	-0.00536622	0.01974055	-0.00079077
12	0.11000000	-0.00054245	0.03722039	0.01421120	-0.01526305	0.01407550	-0.01294610	-0.01093493	0.01935216	-0.00605335	-0.01969886	0.03790621	0.00354995	-0.01615014	-0.00031536	0.01338511	-0.00205458	-0.03069338	-0.01431701	-0.00039010	-0.00452494	0.00471532	-0.00178570	0.01727229	-0.00346317
13	0.12000000	0.00275754	0.04074884	0.01912916	-0.01197076	0.00635962	-0.01742845	-0.00870717	0.01992714	-0.00478295	-0.00318649	0.03209776	0.00991210	-0.01307669	-0.00029562	0.00950943	0.00168836	-0.02752265	-0.00985537	0.00416165	0.00463692	0.00334157	0.00294378	0.01687278	-0.01043204
14	0.13000000	0.00606354	0.04476326	0.01904266	-0.00961128	-0.00594886	-0.02361647	-0.01679476	0.02160876	-0.00308735	0.00312408	0.02093976	0.01361489	-0.00472650	-0.00001641	0.00666041	-0.00133586	-0.02048138	0.00323598	0.00413474	0.01690314	0.00242014	0.00716571	0.01431059	-0.01300841
15	0.14000000	0.00339192	0.04080512	0.01306946	-0.00949275	-0.01834667	-0.02850265	0.00050735	0.01784755	-0.00455427	-0.01413583	0.01091620	0.00659872	0.00872217	0.00246451	0.00805380	-0.01189118	-0.00938009	0.01653606	0.00298489	0.01887941	0.00032337	0.00967850	0.01111211	-0.01308995
16	0.15000000	0.00238992	0.03533449	0.01478187	-0.00580009	-0.01715571	-0.01823442	0.01619825	0.01844216	-0.00322218	-0.02039002	0.01032970	-0.00453801	0.00607283	-0.00230862	0.00751264	-0.02288478	0.00670861	0.01527390	0.00425746	0.01570084	0.00130025	0.01008468	0.01641809	-0.01373265
17	0.16000000	0.00238629	0.02986477	0.01582432	-0.00549789	-0.00691999	-0.00487054	0.01191977	0.02012369	0.00116676	-0.00216120	0.01750488	-0.01520929	-0.00662735	-0.00559715	0.00806877	-0.02727145	0.00916764	0.00971746	0.00375839	0.01103435	0.00322575	0.00606780	0.02306602	-0.01302295
18	0.17000000	0.00057106	0.03063529	0.01024909	-0.00342197	0.00167705	0.00482332	0.00757054	0.01837922	-0.00029709	0.00667809	0.02448566	-0.01386432	-0.01128669	-0.00300641	0.00874265	-0.02503606	0.00646946	0.00089465	0.00385959	0.00374187	0.00241498	0.00016988	0.02234521	-0.01054730
19	0.18000000	-0.00625776	0.03368642	0.00542857	-0.00395609	0.01408903	0.01164826	-0.01805093	0.02462356	0.00337010	0.00360396	0.02876585	-0.00558317	-0.01432240	-0.00178507	0.00961050	-0.01130870	0.00191776	-0.00784217	-0.00016874	0.00137018	0.00262018	0.00167992	0.02124752	-0.00697361
20	0.19000000	-0.02093240	0.03812101	0.00642202	-0.00943479	0.01634082	0.01168716	-0.03247084	0.02282854	0.00629782	-0.00523144	0.03127645	-0.00230452	-0.00557872	-0.00264806	0.00779472	0.00603423	-0.00761462	-0.01194283	0.00270724	0.00423629	0.00200578	0.00460393	0.02037460	-0.00482039
